<svg width="505" height="345" viewBox="0 0 505 345" fill="none" xmlns="http://www.w3.org/2000/svg">
<path fill-rule="evenodd" clip-rule="evenodd" d="M175.747 -228.686C124.559 -224.3 89.1429 -178.427 52.8542 -142.059C22.1113 -111.249 -5.7847 -77.5928 -16.9858 -35.5345C-27.774 4.97305 -9.39575 44.925 -8.10297 86.8245C-6.07776 152.461 -45.4279 225.553 -7.28076 279.004C31.3008 333.064 109.394 347.321 175.747 344.431C240.569 341.608 294.271 300.585 347.547 263.551C402.046 225.666 462.831 190.047 486.846 128.17C511.486 64.6821 511.842 -12.1862 477.355 -70.9103C444.92 -126.139 371.709 -134.829 314.956 -164.517C268.545 -188.795 227.933 -233.158 175.747 -228.686Z" fill="#E3F3FF"/>
</svg>
