<svg width="537" height="560" viewBox="0 0 537 560" fill="none" xmlns="http://www.w3.org/2000/svg">
<g clip-path="url(#clip0_0:13)">
<path d="M508.899 521.825C508.899 542.907 394.979 560 254.449 560C113.919 560 0 542.907 0 521.825C0 506.899 57.1033 493.969 140.325 487.696C174.642 485.102 213.417 483.649 254.449 483.649C271.317 483.649 287.799 483.895 303.739 484.363C420.679 487.811 508.899 503.27 508.899 521.825Z" fill="#3F3D56"/>
<path opacity="0.1" d="M221.617 529.624C275.562 529.624 319.293 524.294 319.293 517.72C319.293 511.145 275.562 505.815 221.617 505.815C167.672 505.815 123.941 511.145 123.941 517.72C123.941 524.294 167.672 529.624 221.617 529.624Z" fill="black"/>
<path d="M221.207 526.34C272.205 526.34 313.547 482.232 313.547 427.823C313.547 373.413 272.205 329.305 221.207 329.305C170.208 329.305 128.866 373.413 128.866 427.823C128.866 482.232 170.208 526.34 221.207 526.34Z" fill="#389AA7"/>
<path d="M250.345 486.112H192.889V538.655H250.345V486.112Z" fill="#AFF5FF"/>
<path d="M325.449 498.838L322.166 516.899L343.506 520.183L357.46 511.973L356.639 498.838H325.449Z" fill="#575A89"/>
<path d="M217.923 159.773C217.923 159.773 216.282 178.656 212.178 179.477C208.074 180.298 221.207 213.137 221.207 213.137H240.906L256.501 209.032L249.114 190.971C249.114 190.971 239.264 177.835 246.652 167.162C254.039 156.489 217.923 159.773 217.923 159.773Z" fill="#A0616A"/>
<path opacity="0.1" d="M217.923 159.773C217.923 159.773 216.282 178.656 212.178 179.477C208.074 180.298 221.207 213.137 221.207 213.137H240.906L256.501 209.032L249.114 190.971C249.114 190.971 239.264 177.835 246.652 167.162C254.039 156.489 217.923 159.773 217.923 159.773Z" fill="black"/>
<path d="M176.883 304.265C176.883 304.265 155.542 345.314 172.779 353.524C190.016 361.734 194.12 360.913 194.12 363.376C194.12 365.839 190.837 365.018 192.479 369.123C194.12 373.228 189.195 389.647 194.12 399.499C199.045 409.351 197.403 416.739 197.403 416.739C197.403 416.739 197.403 417.56 199.045 420.844C200.687 424.128 201.507 426.591 200.687 428.233C199.866 429.875 194.941 440.548 199.866 443.011C204.791 445.474 230.236 447.116 232.698 443.011C235.16 438.906 230.236 436.443 232.698 433.98C235.16 431.517 236.802 430.696 235.16 429.054C233.519 427.412 231.877 406.888 231.877 406.888C231.877 406.888 235.981 383.079 234.34 379.795C232.698 376.511 230.236 373.228 231.877 370.765C233.519 368.302 235.16 369.123 235.981 365.839C236.802 362.555 238.444 355.166 238.444 355.166L247.472 354.345L268.813 358.45C268.813 358.45 292.617 384.721 318.882 392.931C318.882 392.931 326.27 400.32 328.732 400.32C331.194 400.32 331.194 400.32 330.374 401.962C329.553 403.604 327.09 403.604 328.732 405.246C330.374 406.888 332.836 404.425 331.194 406.888C329.553 409.351 327.911 409.351 329.553 410.993C331.194 412.634 328.732 421.665 328.732 422.486C328.732 423.307 321.345 500.479 323.807 502.121C326.27 503.763 360.743 508.689 363.206 502.121C365.668 495.553 361.564 487.343 361.564 487.343C361.564 487.343 373.876 388.826 370.593 382.258C367.31 375.69 355.819 346.135 294.258 327.253C294.258 327.253 277.021 323.969 277.021 321.506C277.021 319.043 275.38 303.444 272.097 302.623C268.813 301.802 249.935 300.982 249.935 300.982L226.131 308.37L193.299 302.623L176.883 304.265Z" fill="#2F2E41"/>
<path d="M205.611 442.19L201.507 456.967C201.507 456.967 198.224 480.776 202.328 486.523C205.552 491.037 211.307 496.564 221.982 497.534C224.973 497.808 227.969 497.053 230.473 495.393C232.978 493.734 234.84 491.269 235.754 488.406C235.876 488.064 235.953 487.706 235.981 487.344C235.981 485.702 233.519 465.998 233.519 465.998L229.415 445.474L228.594 439.727L205.611 442.19Z" fill="#2F2E41"/>
<path d="M325.449 512.794C325.449 512.794 321.345 508.689 320.524 512.794C319.703 516.899 316.42 534.139 322.166 534.96C327.911 535.781 382.905 543.991 388.651 540.707C394.396 537.423 405.067 532.497 398.5 530.034C391.934 527.571 373.055 520.183 373.055 520.183C373.055 520.183 362.385 506.226 360.743 505.405C359.102 504.584 350.073 506.226 345.969 509.51C341.865 512.794 325.449 512.794 325.449 512.794Z" fill="#2F2E41"/>
<path d="M237.623 177.014C251.676 177.014 263.068 165.619 263.068 151.564C263.068 137.508 251.676 126.113 237.623 126.113C223.57 126.113 212.178 137.508 212.178 151.564C212.178 165.619 223.57 177.014 237.623 177.014Z" fill="#A0616A"/>
<path d="M235.16 209.032L225.311 198.359L214.393 177.014C214.393 177.014 206.432 174.551 204.791 178.656C203.149 182.761 173.6 195.896 173.6 195.896C173.6 195.896 180.987 264.859 177.704 271.426C174.421 277.994 168.675 304.265 173.6 306.728C178.525 309.191 201.507 306.728 208.895 310.012C216.282 313.296 237.623 313.296 243.368 309.191C249.114 305.086 250.756 301.803 256.501 304.265C261.393 306.362 272.828 234.679 276.12 213.317C276.397 211.523 276.167 209.687 275.455 208.017C274.743 206.347 273.578 204.909 272.091 203.868C264.726 198.7 251.462 189.796 249.114 190.971C245.831 192.613 235.16 209.032 235.16 209.032Z" fill="#3F3D56"/>
<path d="M270.455 205.748C272.382 206.23 274.116 207.29 275.424 208.787C276.731 210.283 277.549 212.144 277.769 214.119L284.409 273.889C284.409 273.889 267.993 309.191 259.785 285.383C251.576 261.575 270.455 205.748 270.455 205.748Z" fill="#50B3C0"/>
<path d="M268.813 279.636L286.871 274.71C286.871 274.71 290.154 297.698 293.437 297.698C296.721 297.698 281.946 310.833 274.559 309.191C267.172 307.549 256.501 301.803 255.68 297.698C254.86 293.593 263.068 276.352 263.068 276.352L268.813 279.636Z" fill="#50B3C0"/>
<path d="M218.415 162.543C220.145 158.727 219.844 154.276 221.275 150.337C222.041 148.229 223.284 146.326 224.907 144.777C226.53 143.228 228.489 142.076 230.63 141.41C232.772 140.744 235.039 140.582 237.254 140.937C239.469 141.292 241.572 142.155 243.398 143.457C245.238 144.769 247.083 146.613 249.329 146.362C251.747 146.093 253.905 143.394 256.128 144.383C258.593 145.479 257.927 149.897 260.425 150.918C261.739 151.455 263.292 150.628 264.05 149.427C264.713 148.165 265.074 146.767 265.106 145.342C265.45 141.84 265.761 138.134 264.243 134.961C263.605 133.885 263.048 132.762 262.578 131.603C262.313 130.52 262.206 129.404 262.262 128.291C262.248 124.175 261.948 119.882 259.877 116.326C257.579 112.379 253.331 109.855 248.9 108.754C244.469 107.653 239.826 107.822 235.276 108.207C227.755 108.844 219.911 110.209 213.986 114.886C213.18 115.474 212.487 116.203 211.939 117.036C211.419 118.027 211.052 119.09 210.849 120.19C209.568 125.408 207.647 130.448 205.13 135.195C203.919 137.208 202.93 139.345 202.179 141.571C201.551 143.832 201.593 146.409 202.908 148.353C203.979 149.935 205.691 150.778 207.037 152.072C208.369 153.354 208.993 155.819 210.47 156.79C211.758 157.637 213.302 157.039 214.617 157.937C216.305 159.09 216.427 161.619 218.415 162.543Z" fill="#2F2E41"/>
<path d="M239.264 221.347L241.727 216.421C241.727 216.421 277.842 227.094 285.229 236.945C285.229 236.945 303.287 225.452 313.137 227.094L322.986 228.735L292.617 255.828L254.039 252.544L239.264 221.347Z" fill="#F2F2F2"/>
<path d="M237.623 216.421L203.97 263.217L252.397 287.025C252.397 287.025 256.925 289.488 260.407 287.025L292.617 272.247L322.986 228.735L292.617 244.334C292.617 244.334 289.333 237.766 282.767 241.05L237.623 216.421Z" fill="#AFF5FF"/>
<path d="M289.333 299.34L295.9 282.099C295.9 282.099 310.674 263.217 302.466 254.186C294.258 245.155 285.229 280.457 285.229 280.457L289.333 299.34Z" fill="#A0616A"/>
<path d="M213.571 296.588L227.899 284.97C227.899 284.97 250.151 276.05 247.581 264.119C245.011 252.188 219.493 278.195 219.493 278.195L213.571 296.588Z" fill="#A0616A"/>
<path opacity="0.1" d="M178.114 213.547H177.294C177.294 213.547 164.571 198.359 162.109 218.884C159.646 239.408 151.438 307.549 172.779 310.012C194.12 312.475 209.305 299.75 209.305 299.75C209.305 299.75 224.9 275.942 219.155 275.942C216.375 275.942 208.814 274.693 201.918 275.121C194.561 275.577 187.951 277.65 188.375 275.531C189.195 271.426 201.097 219.294 178.114 213.547Z" fill="black"/>
<path d="M176.883 197.538L173.6 195.896C173.6 195.896 160.467 198.359 158.005 218.884C155.542 239.408 147.334 307.549 168.675 310.012C190.016 312.475 218.744 306.728 218.744 306.728C218.744 306.728 224.49 275.531 218.744 275.531C212.999 275.531 183.45 279.636 184.27 275.531C185.091 271.426 199.866 203.285 176.883 197.538Z" fill="#50B3C0"/>
<path d="M277.432 289.899L286.483 276.023L292.206 298.929L277.432 305.497V289.899Z" fill="#50B3C0"/>
<g filter="url(#filter0_d_0:13)">
<path d="M91.4976 92.0427C103.737 92.0427 113.659 82.1185 113.659 69.8763C113.659 57.6342 103.737 47.7099 91.4976 47.7099C79.258 47.7099 69.3359 57.6342 69.3359 69.8763C69.3359 82.1185 79.258 92.0427 91.4976 92.0427Z" fill="#77CFDC"/>
</g>
<g filter="url(#filter1_d_0:13)">
<path d="M117.763 234.893H65.2319V287.435H117.763V234.893Z" fill="#77CFDC"/>
</g>
<g filter="url(#filter2_d_0:13)">
<path d="M305.339 0L318.635 23.0342L331.931 46.0683H305.339H278.748L292.043 23.0342L305.339 0Z" fill="#3F3D56"/>
</g>
<g filter="url(#filter3_d_0:13)">
<path d="M537 135.141C536.682 144.968 534.29 152.845 529.822 158.772C525.354 164.699 520.045 167.663 513.897 167.663C508.889 167.663 504.5 164.763 500.73 158.962C496.958 153.161 495.072 144.238 495.073 132.193C495.073 129.531 495.136 126.995 495.263 124.586C495.389 122.177 495.548 119.895 495.738 117.739L499.066 86.4532H477.104C473.301 126.012 470.179 149.548 467.739 157.06C465.298 164.573 461.163 168.329 455.332 168.329C452.7 168.264 450.189 167.212 448.296 165.381C447.199 164.409 446.332 163.205 445.756 161.856C445.181 160.508 444.912 159.048 444.969 157.583C444.969 154.668 447.266 150.595 451.862 145.364C456.456 140.134 459.008 135.363 459.515 131.052L465.219 86.4532H455.998C453.398 86.4687 450.839 87.1044 448.534 88.3074C446.413 89.282 444.567 90.7688 443.162 92.6342L439.074 98.7202H435.747C438.851 89.0845 442.67 81.8416 447.203 76.9913C451.734 72.1415 456.947 69.7166 462.843 69.7166H535.479V86.4532H510.95C510.189 94.0607 509.603 101.668 509.191 109.276C508.778 116.883 508.572 124.522 508.573 132.193C508.573 137.392 509.777 141.608 512.186 144.841C514.594 148.074 517.605 149.691 521.218 149.69C523.436 149.69 525.765 148.787 528.206 146.98C529.365 146.167 530.334 145.113 531.048 143.89C531.762 142.668 532.203 141.305 532.342 139.896C532.532 138.502 532.674 137.408 532.769 136.615C532.864 135.823 532.912 135.332 532.912 135.141H537Z" fill="#3F3D56"/>
</g>
</g>
<defs>
<filter id="filter0_d_0:13" x="67.3359" y="46.7099" width="54.3234" height="54.3328" filterUnits="userSpaceOnUse" color-interpolation-filters="sRGB">
<feFlood flood-opacity="0" result="BackgroundImageFix"/>
<feColorMatrix in="SourceAlpha" type="matrix" values="0 0 0 0 0 0 0 0 0 0 0 0 0 0 0 0 0 0 127 0" result="hardAlpha"/>
<feOffset dx="3" dy="4"/>
<feGaussianBlur stdDeviation="2.5"/>
<feComposite in2="hardAlpha" operator="out"/>
<feColorMatrix type="matrix" values="0 0 0 0 0.466667 0 0 0 0 0.811765 0 0 0 0 0.862745 0 0 0 0.57 0"/>
<feBlend mode="normal" in2="BackgroundImageFix" result="effect1_dropShadow_0:13"/>
<feBlend mode="normal" in="SourceGraphic" in2="effect1_dropShadow_0:13" result="shape"/>
</filter>
<filter id="filter1_d_0:13" x="63.2319" y="233.893" width="62.5315" height="62.5426" filterUnits="userSpaceOnUse" color-interpolation-filters="sRGB">
<feFlood flood-opacity="0" result="BackgroundImageFix"/>
<feColorMatrix in="SourceAlpha" type="matrix" values="0 0 0 0 0 0 0 0 0 0 0 0 0 0 0 0 0 0 127 0" result="hardAlpha"/>
<feOffset dx="3" dy="4"/>
<feGaussianBlur stdDeviation="2.5"/>
<feComposite in2="hardAlpha" operator="out"/>
<feColorMatrix type="matrix" values="0 0 0 0 0.466667 0 0 0 0 0.811765 0 0 0 0 0.862745 0 0 0 0.57 0"/>
<feBlend mode="normal" in2="BackgroundImageFix" result="effect1_dropShadow_0:13"/>
<feBlend mode="normal" in="SourceGraphic" in2="effect1_dropShadow_0:13" result="shape"/>
</filter>
<filter id="filter2_d_0:13" x="276.748" y="-1" width="63.1831" height="56.0683" filterUnits="userSpaceOnUse" color-interpolation-filters="sRGB">
<feFlood flood-opacity="0" result="BackgroundImageFix"/>
<feColorMatrix in="SourceAlpha" type="matrix" values="0 0 0 0 0 0 0 0 0 0 0 0 0 0 0 0 0 0 127 0" result="hardAlpha"/>
<feOffset dx="3" dy="4"/>
<feGaussianBlur stdDeviation="2.5"/>
<feComposite in2="hardAlpha" operator="out"/>
<feColorMatrix type="matrix" values="0 0 0 0 0.247059 0 0 0 0 0.239216 0 0 0 0 0.337255 0 0 0 0.57 0"/>
<feBlend mode="normal" in2="BackgroundImageFix" result="effect1_dropShadow_0:13"/>
<feBlend mode="normal" in="SourceGraphic" in2="effect1_dropShadow_0:13" result="shape"/>
</filter>
<filter id="filter3_d_0:13" x="433.747" y="68.7166" width="111.253" height="108.612" filterUnits="userSpaceOnUse" color-interpolation-filters="sRGB">
<feFlood flood-opacity="0" result="BackgroundImageFix"/>
<feColorMatrix in="SourceAlpha" type="matrix" values="0 0 0 0 0 0 0 0 0 0 0 0 0 0 0 0 0 0 127 0" result="hardAlpha"/>
<feOffset dx="3" dy="4"/>
<feGaussianBlur stdDeviation="2.5"/>
<feComposite in2="hardAlpha" operator="out"/>
<feColorMatrix type="matrix" values="0 0 0 0 0.247059 0 0 0 0 0.239216 0 0 0 0 0.337255 0 0 0 0.57 0"/>
<feBlend mode="normal" in2="BackgroundImageFix" result="effect1_dropShadow_0:13"/>
<feBlend mode="normal" in="SourceGraphic" in2="effect1_dropShadow_0:13" result="shape"/>
</filter>
<clipPath id="clip0_0:13">
<rect width="537" height="560" fill="white"/>
</clipPath>
</defs>
</svg>
